<svg version="1" xmlns="http://www.w3.org/2000/svg" width="130.667" height="130.667" viewBox="0 0 98.000000 98.000000"><path d="M16 17c0 .5 1.1 1.2 2.5 1.6 1.4.3 2.9 1.4 3.4 2.3.5.9.9 8.5.9 16.9l.1 15.2-3.7.1c-2 0-4.4.2-5.2.3-.8.2-4.1.6-7.3 1-7.6 1-7.3 2.1.5 2 3.5-.1 8.3.1 10.8.5l4.5.6-.1 5.8c0 3.7-.5 6.1-1.3 6.7-.7.4-4.4 1.1-8.1 1.4-3.7.4-8 1.1-9.6 1.5-2.3.7-1.4.9 4.1 1 11.3.1 18.4 1.3 33.3 5.7 4.6 1.4 9.8 2.7 11.5 3 5.9.9 15.7.4 22.6-1 7.1-1.5 22.6-7.4 21.7-8.3-.3-.3-1.8-.1-3.3.6-8 3.3-25.1 3.6-37.8.6-5.4-1.3-12.8-2.6-16.4-3-3.7-.4-7.3-1-8-1.4-.6-.4-1.4-3.1-1.8-6l-.6-5.3 2.9.5c1.6.3 5.8 1.5 9.4 2.7 5.9 2 8.3 2.4 17.5 3.4 2.8.3 10.6-.5 18.7-1.9 3.6-.7 17.9-6.2 19.1-7.4.5-.5-1.6-.2-4.5.6s-9.8 1.7-15.3 2c-8.4.5-11.8.1-21.5-2-6.3-1.4-14.7-2.9-18.7-3.3l-7.2-.6.1-15.4c.1-15.7.9-19.4 4.3-19.4.8 0 1.7-.5 2-1 .4-.6-3-1-9.4-1-6 0-10.1.4-10.1 1z"/></svg>